<svg width="24" height="24" viewBox="0 0 24 24" fill="none" xmlns="http://www.w3.org/2000/svg">
<path d="M1.75 13.325C1.46667 13.325 1.22934 13.2293 1.038 13.038C0.84667 12.8467 0.75067 12.609 0.750003 12.325C0.749337 12.041 0.845337 11.8037 1.038 11.613C1.23067 11.4223 1.468 11.3263 1.75 11.325H5.25C5.53334 11.325 5.771 11.421 5.963 11.613C6.155 11.805 6.25067 12.0423 6.25 12.325C6.24934 12.6077 6.15334 12.8453 5.962 13.038C5.77067 13.2307 5.53334 13.3263 5.25 13.325H1.75ZM7 20C6.16667 20 5.45834 19.7083 4.875 19.125C4.29167 18.5417 4 17.8333 4 17H2.75C2.41667 17 2.15 16.875 1.95 16.625C1.75 16.375 1.69167 16.0917 1.775 15.775L2 14.825H5.125C5.825 14.825 6.41667 14.5833 6.9 14.1C7.38334 13.6167 7.625 13.025 7.625 12.325C7.625 12.1083 7.6 11.9083 7.55 11.725C7.5 11.5417 7.43334 11.3583 7.35 11.175H8.3C9 11.175 9.59167 10.9333 10.075 10.45C10.5583 9.96667 10.8 9.375 10.8 8.675C10.8 7.975 10.5583 7.38333 10.075 6.9C9.59167 6.41667 9 6.175 8.3 6.175H4.5L4.65 5.575C4.75 5.10833 4.97934 4.72933 5.338 4.438C5.69667 4.14667 6.11734 4.00067 6.6 4H16.75C17.0833 4 17.35 4.125 17.55 4.375C17.75 4.625 17.8083 4.90833 17.725 5.225L17.075 8H19C19.3167 8 19.6167 8.071 19.9 8.213C20.1833 8.355 20.4167 8.55067 20.6 8.8L22.475 11.275C22.6583 11.5083 22.775 11.7627 22.825 12.038C22.875 12.3133 22.875 12.5923 22.825 12.875L22.15 16.2C22.1 16.4333 21.9833 16.625 21.8 16.775C21.6167 16.925 21.4083 17 21.175 17H20C20 17.8333 19.7083 18.5417 19.125 19.125C18.5417 19.7083 17.8333 20 17 20C16.1667 20 15.4583 19.7083 14.875 19.125C14.2917 18.5417 14 17.8333 14 17H10C10 17.8333 9.70834 18.5417 9.125 19.125C8.54167 19.7083 7.83334 20 7 20ZM3.75 9.675C3.46667 9.675 3.22934 9.579 3.038 9.387C2.84667 9.195 2.75067 8.95767 2.75 8.675C2.74934 8.39233 2.84534 8.155 3.038 7.963C3.23067 7.771 3.468 7.675 3.75 7.675H8.25C8.53334 7.675 8.771 7.771 8.963 7.963C9.155 8.155 9.25067 8.39233 9.25 8.675C9.24934 8.95767 9.15334 9.19533 8.962 9.388C8.77067 9.58067 8.53334 9.67633 8.25 9.675H3.75ZM7 18C7.28334 18 7.521 17.904 7.713 17.712C7.905 17.52 8.00067 17.2827 8 17C7.99934 16.7173 7.90334 16.48 7.712 16.288C7.52067 16.096 7.28334 16 7 16C6.71667 16 6.47934 16.096 6.288 16.288C6.09667 16.48 6.00067 16.7173 6 17C5.99934 17.2827 6.09534 17.5203 6.288 17.713C6.48067 17.9057 6.718 18.0013 7 18ZM17 18C17.2833 18 17.521 17.904 17.713 17.712C17.905 17.52 18.0007 17.2827 18 17C17.9993 16.7173 17.9033 16.48 17.712 16.288C17.5207 16.096 17.2833 16 17 16C16.7167 16 16.4793 16.096 16.288 16.288C16.0967 16.48 16.0007 16.7173 16 17C15.9993 17.2827 16.0953 17.5203 16.288 17.713C16.4807 17.9057 16.718 18.0013 17 18ZM15.925 13H20.75L20.85 12.475L19 10H16.625L15.925 13Z" fill="#59AC77"/>
</svg>
