<svg width="24" height="24" viewBox="0 0 24 24" fill="none" xmlns="http://www.w3.org/2000/svg">
<path d="M10.95 12.7L9.55 11.3C9.35 11.1 9.11667 11 8.85 11C8.58333 11 8.35 11.1 8.15 11.3C7.95 11.5 7.85 11.7377 7.85 12.013C7.85 12.2883 7.95 12.5257 8.15 12.725L10.25 14.85C10.45 15.05 10.6833 15.15 10.95 15.15C11.2167 15.15 11.45 15.05 11.65 14.85L15.9 10.6C16.1 10.4 16.2 10.1627 16.2 9.888C16.2 9.61333 16.1 9.37567 15.9 9.175C15.7 8.97433 15.4627 8.87433 15.188 8.875C14.9133 8.87567 14.6757 8.97567 14.475 9.175L10.95 12.7ZM12 21.9C11.8833 21.9 11.775 21.8917 11.675 21.875C11.575 21.8583 11.475 21.8333 11.375 21.8C9.125 21.05 7.33333 19.6627 6 17.638C4.66667 15.6133 4 13.434 4 11.1V6.375C4 5.95833 4.121 5.58333 4.363 5.25C4.605 4.91667 4.91733 4.675 5.3 4.525L11.3 2.275C11.5333 2.19167 11.7667 2.15 12 2.15C12.2333 2.15 12.4667 2.19167 12.7 2.275L18.7 4.525C19.0833 4.675 19.396 4.91667 19.638 5.25C19.88 5.58333 20.0007 5.95833 20 6.375V11.1C20 13.4333 19.3333 15.6127 18 17.638C16.6667 19.6633 14.875 21.0507 12.625 21.8C12.525 21.8333 12.425 21.8583 12.325 21.875C12.225 21.8917 12.1167 21.9 12 21.9Z" fill="#59AC77"/>
</svg>
